<mxfile host="app.diagrams.net" agent="Mozilla/5.0 (Windows NT 10.0; Win64; x64) AppleWebKit/537.36 (KHTML, like Gecko) Chrome/131.0.0.0 Safari/537.36" version="24.8.6">
  <diagram name="Page-1" id="APBb1IrMTwSisZW3O5uU">
    <mxGraphModel dx="1434" dy="780" grid="1" gridSize="10" guides="1" tooltips="1" connect="1" arrows="1" fold="1" page="1" pageScale="1" pageWidth="1169" pageHeight="1654" math="0" shadow="0">
      <root>
        <mxCell id="0" />
        <mxCell id="1" parent="0" />
        <mxCell id="QgCacdNSJLmAkQbC4SZz-2" value="Content delivery network" style="rounded=0;whiteSpace=wrap;html=1;labelPosition=center;verticalLabelPosition=bottom;align=center;verticalAlign=top;dashed=1;fillColor=#dae8fc;strokeColor=#6c8ebf;" vertex="1" parent="1">
          <mxGeometry x="160" y="40" width="730" height="360" as="geometry" />
        </mxCell>
        <mxCell id="QgCacdNSJLmAkQbC4SZz-22" style="edgeStyle=orthogonalEdgeStyle;rounded=0;orthogonalLoop=1;jettySize=auto;html=1;entryX=0;entryY=0.5;entryDx=0;entryDy=0;" edge="1" parent="1" source="QgCacdNSJLmAkQbC4SZz-1" target="QgCacdNSJLmAkQbC4SZz-4">
          <mxGeometry relative="1" as="geometry" />
        </mxCell>
        <mxCell id="QgCacdNSJLmAkQbC4SZz-26" value="Websocket" style="edgeLabel;html=1;align=center;verticalAlign=middle;resizable=0;points=[];labelBackgroundColor=none;" vertex="1" connectable="0" parent="QgCacdNSJLmAkQbC4SZz-22">
          <mxGeometry x="0.019" relative="1" as="geometry">
            <mxPoint x="8" y="-10" as="offset" />
          </mxGeometry>
        </mxCell>
        <mxCell id="QgCacdNSJLmAkQbC4SZz-1" value="Client&lt;div&gt;(Spectator)&lt;/div&gt;" style="sketch=0;outlineConnect=0;fontColor=#232F3E;gradientColor=none;fillColor=#232F3D;strokeColor=none;dashed=0;verticalLabelPosition=bottom;verticalAlign=top;align=center;html=1;fontSize=12;fontStyle=0;aspect=fixed;pointerEvents=1;shape=mxgraph.aws4.client;" vertex="1" parent="1">
          <mxGeometry x="40" y="80" width="82.11" height="80" as="geometry" />
        </mxCell>
        <mxCell id="QgCacdNSJLmAkQbC4SZz-23" style="edgeStyle=orthogonalEdgeStyle;rounded=0;orthogonalLoop=1;jettySize=auto;html=1;entryX=0;entryY=0.5;entryDx=0;entryDy=0;" edge="1" parent="1" source="QgCacdNSJLmAkQbC4SZz-3" target="QgCacdNSJLmAkQbC4SZz-5">
          <mxGeometry relative="1" as="geometry">
            <Array as="points">
              <mxPoint x="130" y="290" />
              <mxPoint x="130" y="290" />
            </Array>
          </mxGeometry>
        </mxCell>
        <mxCell id="QgCacdNSJLmAkQbC4SZz-27" value="Websocket" style="edgeLabel;html=1;align=center;verticalAlign=middle;resizable=0;points=[];labelBackgroundColor=none;" vertex="1" connectable="0" parent="QgCacdNSJLmAkQbC4SZz-23">
          <mxGeometry x="0.1798" y="2" relative="1" as="geometry">
            <mxPoint x="6" y="-8" as="offset" />
          </mxGeometry>
        </mxCell>
        <mxCell id="QgCacdNSJLmAkQbC4SZz-3" value="HLS Encoder&lt;div&gt;(Publisher)&lt;/div&gt;" style="image;aspect=fixed;perimeter=ellipsePerimeter;html=1;align=center;shadow=0;dashed=0;spacingTop=3;image=img/lib/active_directory/generic_server.svg;" vertex="1" parent="1">
          <mxGeometry x="58.65" y="250" width="44.8" height="80" as="geometry" />
        </mxCell>
        <mxCell id="QgCacdNSJLmAkQbC4SZz-29" style="edgeStyle=orthogonalEdgeStyle;rounded=0;orthogonalLoop=1;jettySize=auto;html=1;" edge="1" parent="1" source="QgCacdNSJLmAkQbC4SZz-4" target="QgCacdNSJLmAkQbC4SZz-5">
          <mxGeometry relative="1" as="geometry" />
        </mxCell>
        <mxCell id="QgCacdNSJLmAkQbC4SZz-30" value="Websocket" style="edgeLabel;html=1;align=center;verticalAlign=middle;resizable=0;points=[];labelBackgroundColor=none;" vertex="1" connectable="0" parent="QgCacdNSJLmAkQbC4SZz-29">
          <mxGeometry x="0.1333" y="5" relative="1" as="geometry">
            <mxPoint x="23" y="-11" as="offset" />
          </mxGeometry>
        </mxCell>
        <mxCell id="QgCacdNSJLmAkQbC4SZz-4" value="CDN Server" style="image;aspect=fixed;perimeter=ellipsePerimeter;html=1;align=center;shadow=0;dashed=0;spacingTop=3;image=img/lib/active_directory/web_server.svg;labelBackgroundColor=none;labelPosition=center;verticalLabelPosition=top;verticalAlign=bottom;" vertex="1" parent="1">
          <mxGeometry x="240" y="80" width="64" height="80" as="geometry" />
        </mxCell>
        <mxCell id="QgCacdNSJLmAkQbC4SZz-5" value="CDN Server" style="image;aspect=fixed;perimeter=ellipsePerimeter;html=1;align=center;shadow=0;dashed=0;spacingTop=3;image=img/lib/active_directory/web_server.svg;labelBackgroundColor=none;" vertex="1" parent="1">
          <mxGeometry x="240" y="250" width="64" height="80" as="geometry" />
        </mxCell>
        <mxCell id="QgCacdNSJLmAkQbC4SZz-6" value="CDN Server" style="image;aspect=fixed;perimeter=ellipsePerimeter;html=1;align=center;shadow=0;dashed=0;spacingTop=3;image=img/lib/active_directory/web_server.svg;labelBackgroundColor=none;labelPosition=center;verticalLabelPosition=top;verticalAlign=bottom;" vertex="1" parent="1">
          <mxGeometry x="750" y="80" width="64" height="80" as="geometry" />
        </mxCell>
        <mxCell id="QgCacdNSJLmAkQbC4SZz-7" value="CDN Server" style="image;aspect=fixed;perimeter=ellipsePerimeter;html=1;align=center;shadow=0;dashed=0;spacingTop=3;image=img/lib/active_directory/web_server.svg;labelBackgroundColor=none;" vertex="1" parent="1">
          <mxGeometry x="750" y="260" width="64" height="80" as="geometry" />
        </mxCell>
        <mxCell id="QgCacdNSJLmAkQbC4SZz-9" value="&lt;font style=&quot;font-size: 32px;&quot;&gt;...&lt;/font&gt;" style="text;html=1;align=center;verticalAlign=middle;whiteSpace=wrap;rounded=0;" vertex="1" parent="1">
          <mxGeometry x="750" y="200" width="60" height="30" as="geometry" />
        </mxCell>
        <mxCell id="QgCacdNSJLmAkQbC4SZz-10" value="Redis&lt;div&gt;(Publish registry)&lt;/div&gt;" style="outlineConnect=0;dashed=0;verticalLabelPosition=bottom;verticalAlign=top;align=center;html=1;shape=mxgraph.aws3.redis;fillColor=#2E73B8;gradientColor=none;" vertex="1" parent="1">
          <mxGeometry x="490" y="187" width="60" height="63" as="geometry" />
        </mxCell>
        <mxCell id="QgCacdNSJLmAkQbC4SZz-11" style="edgeStyle=orthogonalEdgeStyle;rounded=0;orthogonalLoop=1;jettySize=auto;html=1;entryX=1;entryY=0.53;entryDx=0;entryDy=0;entryPerimeter=0;" edge="1" parent="1" source="QgCacdNSJLmAkQbC4SZz-6" target="QgCacdNSJLmAkQbC4SZz-10">
          <mxGeometry relative="1" as="geometry" />
        </mxCell>
        <mxCell id="QgCacdNSJLmAkQbC4SZz-13" style="edgeStyle=orthogonalEdgeStyle;rounded=0;orthogonalLoop=1;jettySize=auto;html=1;entryX=1;entryY=0.53;entryDx=0;entryDy=0;entryPerimeter=0;" edge="1" parent="1" source="QgCacdNSJLmAkQbC4SZz-7" target="QgCacdNSJLmAkQbC4SZz-10">
          <mxGeometry relative="1" as="geometry" />
        </mxCell>
        <mxCell id="QgCacdNSJLmAkQbC4SZz-14" value="TCP&amp;nbsp;&lt;div&gt;(Redis protocol)&lt;/div&gt;" style="edgeLabel;html=1;align=center;verticalAlign=middle;resizable=0;points=[];labelBackgroundColor=none;" vertex="1" connectable="0" parent="QgCacdNSJLmAkQbC4SZz-13">
          <mxGeometry x="0.5422" y="1" relative="1" as="geometry">
            <mxPoint x="-14" y="-21" as="offset" />
          </mxGeometry>
        </mxCell>
        <mxCell id="QgCacdNSJLmAkQbC4SZz-15" style="edgeStyle=orthogonalEdgeStyle;rounded=0;orthogonalLoop=1;jettySize=auto;html=1;entryX=0;entryY=0.5;entryDx=0;entryDy=0;entryPerimeter=0;" edge="1" parent="1" source="QgCacdNSJLmAkQbC4SZz-4" target="QgCacdNSJLmAkQbC4SZz-10">
          <mxGeometry relative="1" as="geometry" />
        </mxCell>
        <mxCell id="QgCacdNSJLmAkQbC4SZz-16" style="edgeStyle=orthogonalEdgeStyle;rounded=0;orthogonalLoop=1;jettySize=auto;html=1;entryX=0;entryY=0.5;entryDx=0;entryDy=0;entryPerimeter=0;labelBackgroundColor=default;" edge="1" parent="1" source="QgCacdNSJLmAkQbC4SZz-5" target="QgCacdNSJLmAkQbC4SZz-10">
          <mxGeometry relative="1" as="geometry" />
        </mxCell>
        <mxCell id="QgCacdNSJLmAkQbC4SZz-17" value="TCP&lt;div&gt;(Redis protocol)&lt;/div&gt;" style="edgeLabel;html=1;align=center;verticalAlign=middle;resizable=0;points=[];labelBackgroundColor=none;" vertex="1" connectable="0" parent="QgCacdNSJLmAkQbC4SZz-16">
          <mxGeometry x="0.6194" relative="1" as="geometry">
            <mxPoint x="1" y="-18" as="offset" />
          </mxGeometry>
        </mxCell>
      </root>
    </mxGraphModel>
  </diagram>
</mxfile>
